# xmcd
#
# Track frame offsets: 
#        150
#        98542
#        231212
#        243717
#
# Disc length: 3412 seconds
#
# Revision: 0
# Processed by: cddbd v1.4PL0 Copyright (c) Steve Scherf et al.
# Submitted via: ExactAudioCopy v0.90b4
#
DISCID=290d5204
DTITLE=Hank Snow - The Yodelling Ranger, Vol. 5
DYEAR=1900
DGENRE=Country
TTITLE0=Life Story, Part 1
TTITLE1=Life Stroy, Part 2
TTITLE2=Marriage And Divorce (Demo)
TTITLE3=I Don't Hurt Anymore (Demo)
EXTD=
EXTT0=
EXTT1=
EXTT2=
EXTT3=
PLAYORDER=
